# xmcd
#
# Track frame offsets:
#	150
#	13825
#	30250
#	43510
#	57776
#	69161
#	85891
#	104621
#	125298
#	144932
#	161412
#	169787
#
# Disc length: 2550 seconds
# Revision: 0
# Processed by: cddbd v1.5.2PL0 Copyright (c) Steve Scherf et al.
# Submitted via: dBpowerAMP V12.0
#
DISCID=8e09f40c
DTITLE=The Better Halves - Tête à Tête
DYEAR=2011
DGENRE=Folk
TTITLE0=There Ain't a Cow in Texas
TTITLE1=Baby, It's Hot Outside
TTITLE2=Country Boy, City Girl
TTITLE3=Finely Aged Wine
TTITLE4=Blue Angel
TTITLE5=Carnival Dreams
TTITLE6=Getting Nowhere
TTITLE7=My Internet Date
TTITLE8=Different as Can Be
TTITLE9=Wedding Vows
TTITLE10=Flight of the Bumblebee
TTITLE11=The Captain and the Mermaid
EXTD=
EXTT0=
EXTT1=
EXTT2=
EXTT3=
EXTT4=
EXTT5=
EXTT6=
EXTT7=
EXTT8=
EXTT9=
EXTT10=
EXTT11=
PLAYORDER=
